<svg width="25" height="25" viewBox="0 0 25 25" fill="none" xmlns="http://www.w3.org/2000/svg">
<path d="M12.5 0C5.59686 0 0 5.59686 0 12.5C0 19.4039 5.59609 25 12.5 25C19.4039 25 25 19.4039 25 12.5C25 5.59686 19.4039 0 12.5 0ZM12.5 23.4617C6.46875 23.4617 1.56252 18.5312 1.56252 12.5C1.56252 6.46875 6.46875 1.56252 12.5 1.56252C18.5312 1.56252 23.4375 6.46875 23.4375 12.5C23.4375 18.5312 18.5312 23.4617 12.5 23.4617Z" fill="#F39C12"/>
<path d="M15.318 6.48596C15.0125 6.17814 14.518 6.17814 14.2133 6.48596L8.82264 11.9539C8.52574 12.2539 8.52496 12.7696 8.82264 13.0703L14.2125 18.5383C14.518 18.8461 15.0125 18.8461 15.3172 18.5383C15.6227 18.2297 15.6227 17.7305 15.3172 17.4219L10.4773 12.5118L15.318 7.60163C15.6227 7.29375 15.6227 6.79455 15.318 6.48596Z" fill="#F39C12"/>
</svg>
