<svg width="238" height="165" viewBox="0 0 238 165" fill="none" xmlns="http://www.w3.org/2000/svg">
<path d="M47.4199 165C73.6092 165 94.8399 163.393 94.8399 161.411C94.8399 159.429 73.6092 157.823 47.4199 157.823C21.2306 157.823 0 159.429 0 161.411C0 163.393 21.2306 165 47.4199 165Z" fill="#E6E6E6"/>
<path d="M36.2469 36.6106C44.4994 33.113 54.778 35.329 64.8162 36.8671C64.9096 35.0045 66.0418 32.7377 64.8558 31.4383C63.4148 29.8596 63.5475 28.2009 64.4146 26.5326C66.6319 22.2665 63.4551 17.7272 60.2475 13.9528C59.5246 13.104 58.6109 12.4371 57.5807 12.0062C56.5505 11.5753 55.4328 11.3927 54.3184 11.4731L48.3767 11.896C46.9308 11.9989 45.551 12.5393 44.4218 13.445C43.2926 14.3507 42.468 15.5784 42.0581 16.9639V16.9639C40.6394 18.8866 39.88 20.8039 40.3581 22.7113C38.233 24.1584 37.876 25.9052 38.8309 27.8744C39.6407 29.1143 39.632 30.3212 38.7941 31.4947C37.6936 32.9908 36.8507 34.659 36.3 36.431L36.2469 36.6106Z" fill="#2F2E41"/>
<path d="M232.36 142.64H64.1643C62.6686 142.64 61.2341 142.048 60.1764 140.994C59.1188 139.94 58.5246 138.511 58.5246 137.02C119.496 129.959 179.321 129.959 238 137.02C238 138.511 237.406 139.94 236.348 140.994C235.291 142.048 233.856 142.64 232.36 142.64Z" fill="#2F2E41"/>
<path d="M238 137.351L58.5246 137.02L79.3252 102.145L79.4247 101.98V25.1198C79.4246 24.1869 79.609 23.2631 79.9672 22.4012C80.3255 21.5393 80.8506 20.7561 81.5126 20.0964C82.1747 19.4368 82.9606 18.9135 83.8256 18.5565C84.6906 18.1995 85.6177 18.0159 86.5539 18.0159H208.975C209.912 18.0159 210.839 18.1995 211.704 18.5565C212.569 18.9135 213.355 19.4368 214.017 20.0964C214.679 20.7561 215.204 21.5393 215.562 22.4012C215.92 23.2631 216.105 24.1869 216.105 25.1198V102.509L238 137.351Z" fill="#3F3D56"/>
<path d="M86.3914 22.9744C85.7757 22.9751 85.1854 23.2191 84.7501 23.6529C84.3147 24.0867 84.0698 24.6749 84.0692 25.2884V95.3687C84.0699 95.9822 84.3148 96.5703 84.7501 97.0041C85.1855 97.4379 85.7757 97.682 86.3914 97.6827H210.133C210.749 97.6819 211.339 97.4379 211.774 97.0041C212.21 96.5703 212.455 95.9822 212.455 95.3687V25.2884C212.455 24.6749 212.21 24.0868 211.775 23.653C211.339 23.2192 210.749 22.9751 210.133 22.9744H86.3914Z" fill="white"/>
<path d="M86.9099 106.939C86.7196 106.939 86.5334 106.993 86.3732 107.096C86.213 107.198 86.0855 107.344 86.0057 107.516L79.5964 121.4C79.5266 121.551 79.4961 121.717 79.5076 121.883C79.5192 122.049 79.5724 122.209 79.6625 122.349C79.7525 122.489 79.8764 122.604 80.0229 122.684C80.1693 122.764 80.3335 122.806 80.5004 122.806H215.285C215.454 122.806 215.621 122.763 215.769 122.68C215.917 122.598 216.042 122.479 216.131 122.335C216.22 122.192 216.271 122.027 216.279 121.859C216.286 121.69 216.251 121.522 216.175 121.371L209.208 107.487C209.126 107.322 208.999 107.183 208.842 107.086C208.684 106.989 208.503 106.938 208.318 106.939H86.9099Z" fill="#2F2E41"/>
<path d="M147.765 21.8175C148.589 21.8175 149.258 21.1515 149.258 20.3299C149.258 19.5083 148.589 18.8423 147.765 18.8423C146.94 18.8423 146.272 19.5083 146.272 20.3299C146.272 21.1515 146.94 21.8175 147.765 21.8175Z" fill="white"/>
<path d="M134.516 125.45C134.298 125.451 134.085 125.523 133.911 125.655C133.738 125.788 133.613 125.974 133.556 126.184L131.948 132.134C131.908 132.281 131.903 132.435 131.932 132.585C131.962 132.734 132.026 132.875 132.119 132.995C132.212 133.116 132.331 133.214 132.468 133.282C132.605 133.349 132.756 133.384 132.909 133.384H163.484C163.642 133.384 163.799 133.346 163.94 133.274C164.081 133.201 164.202 133.096 164.294 132.967C164.386 132.839 164.446 132.69 164.469 132.533C164.491 132.377 164.476 132.217 164.424 132.068L162.357 126.118C162.289 125.923 162.162 125.754 161.994 125.634C161.825 125.515 161.623 125.45 161.417 125.45H134.516Z" fill="#2F2E41"/>
<path d="M216.105 100.823V102.145H79.3251L79.4281 101.98V100.823H216.105Z" fill="#2F2E41"/>
<path d="M212.29 46.2794C225.115 46.2794 235.512 35.9194 235.512 23.1397C235.512 10.36 225.115 0 212.29 0C199.464 0 189.067 10.36 189.067 23.1397C189.067 35.9194 199.464 46.2794 212.29 46.2794Z" fill="#F39C12"/>
<path d="M221.91 33.222H202.669C202.317 33.2217 201.98 33.0823 201.731 32.8344C201.482 32.5865 201.342 32.2503 201.342 31.8998V20.3299C201.342 19.9793 201.482 19.6432 201.731 19.3953C201.98 19.1474 202.317 19.008 202.669 19.0076H221.91C222.262 19.008 222.599 19.1474 222.848 19.3953C223.097 19.6432 223.237 19.9793 223.237 20.3299V31.8998C223.237 32.2503 223.097 32.5865 222.848 32.8344C222.599 33.0823 222.262 33.2217 221.91 33.222ZM202.669 20.3299V31.8998H221.911L221.91 20.3299L202.669 20.3299Z" fill="white"/>
<path d="M218.261 20.3299H206.318V15.0408C206.318 11.2099 208.83 8.42947 212.29 8.42947C215.75 8.42947 218.261 11.2099 218.261 15.0408L218.261 20.3299ZM207.645 19.0076H216.934V15.0408C216.934 11.9267 215.024 9.75175 212.29 9.75175C209.555 9.75175 207.645 11.9267 207.645 15.0408L207.645 19.0076Z" fill="white"/>
<path d="M212.29 27.1065C213.022 27.1065 213.617 26.5145 213.617 25.7842C213.617 25.054 213.022 24.462 212.29 24.462C211.557 24.462 210.963 25.054 210.963 25.7842C210.963 26.5145 211.557 27.1065 212.29 27.1065Z" fill="white"/>
<path d="M196.078 73.9121H100.446C99.9767 73.9116 99.5266 73.7255 99.1946 73.3947C98.8626 73.0639 98.6758 72.6153 98.6753 72.1475V48.5096C98.6758 48.0417 98.8626 47.5932 99.1946 47.2624C99.5266 46.9316 99.9767 46.7455 100.446 46.7449H196.078C196.548 46.7455 196.998 46.9316 197.33 47.2624C197.662 47.5932 197.849 48.0417 197.849 48.5096V72.1475C197.849 72.6153 197.662 73.0639 197.33 73.3947C196.998 73.7255 196.548 73.9116 196.078 73.9121V73.9121ZM100.446 47.4508C100.165 47.4511 99.8944 47.5628 99.6952 47.7613C99.496 47.9598 99.384 48.2289 99.3837 48.5096V72.1475C99.384 72.4282 99.496 72.6973 99.6952 72.8958C99.8944 73.0943 100.165 73.206 100.446 73.2063H196.078C196.36 73.206 196.63 73.0943 196.829 72.8958C197.029 72.6973 197.141 72.4282 197.141 72.1475V48.5096C197.141 48.2289 197.029 47.9597 196.829 47.7612C196.63 47.5628 196.36 47.4511 196.078 47.4508L100.446 47.4508Z" fill="#E6E6E6"/>
<path d="M115.306 66.6099C119.29 66.6099 122.519 63.3915 122.519 59.4216C122.519 55.4516 119.29 52.2332 115.306 52.2332C111.321 52.2332 108.092 55.4516 108.092 59.4216C108.092 63.3915 111.321 66.6099 115.306 66.6099Z" fill="#E6E6E6"/>
<path d="M131.966 54.6294C131.808 54.6291 131.652 54.6599 131.506 54.72C131.36 54.7801 131.227 54.8683 131.115 54.9796C131.003 55.0909 130.914 55.223 130.854 55.3685C130.793 55.514 130.762 55.6699 130.762 55.8274C130.762 55.9849 130.793 56.1408 130.854 56.2863C130.914 56.4318 131.003 56.564 131.115 56.6752C131.227 56.7865 131.36 56.8747 131.506 56.9348C131.652 56.9949 131.808 57.0257 131.966 57.0255H188.647C188.966 57.0255 189.272 56.8992 189.498 56.6746C189.723 56.4499 189.85 56.1452 189.85 55.8274C189.85 55.5097 189.723 55.2049 189.498 54.9803C189.272 54.7556 188.966 54.6294 188.647 54.6294H131.966Z" fill="#E6E6E6"/>
<path d="M131.966 61.8177C131.647 61.8177 131.342 61.9439 131.116 62.1686C130.891 62.3932 130.764 62.698 130.764 63.0157C130.764 63.3335 130.891 63.6382 131.116 63.8629C131.342 64.0875 131.647 64.2138 131.966 64.2138H156.356C156.675 64.2138 156.981 64.0875 157.207 63.8629C157.432 63.6382 157.559 63.3335 157.559 63.0157C157.559 62.698 157.432 62.3932 157.207 62.1686C156.981 61.9439 156.675 61.8177 156.356 61.8177H131.966Z" fill="#E6E6E6"/>
<path d="M79.0898 62.3023L61.4115 71.6675L61.1877 63.8632C66.9578 62.9034 72.4474 61.2323 77.5234 58.5117L79.3723 53.96C79.5738 53.464 79.9012 53.0288 80.3225 52.697C80.7438 52.3652 81.2444 52.1482 81.7752 52.0675C82.306 51.9867 82.8488 52.0449 83.3503 52.2362C83.8517 52.4276 84.2946 52.7457 84.6354 53.1591V53.1591C85.1341 53.7641 85.3834 54.5353 85.3328 55.3165C85.2822 56.0977 84.9354 56.8305 84.3628 57.3665L79.0898 62.3023Z" fill="#FFB8B8"/>
<path d="M35.8946 116.373C35.7656 115.902 35.7382 115.409 35.8142 114.926C35.8902 114.444 36.0679 113.983 36.3355 113.573L40.219 107.635C41.1375 106.23 42.5469 105.216 44.1737 104.788C45.8005 104.36 47.5288 104.55 49.0232 105.32V105.32C47.3911 108.088 47.6186 110.517 49.5868 112.627C46.5314 114.114 43.7074 116.032 41.2025 118.323C40.7452 118.634 40.22 118.831 39.6707 118.898C39.1214 118.966 38.5639 118.901 38.0446 118.711C37.5252 118.52 37.0592 118.208 36.6852 117.802C36.3112 117.395 36.0401 116.906 35.8946 116.373V116.373Z" fill="#2F2E41"/>
<path d="M79.895 108.609C79.3074 109.585 78.4779 110.394 77.4861 110.958C76.4943 111.523 75.3735 111.824 74.2314 111.832L48.4325 112.027L47.3136 105.561L58.7262 102.216L49.1038 94.8574L59.6213 82.5935L78.7243 100.335C79.8408 101.372 80.5663 102.759 80.7794 104.265C80.9925 105.771 80.6803 107.304 79.895 108.609V108.609Z" fill="#2F2E41"/>
<path d="M44.4045 152.832H38.3625C32.9377 115.78 27.4158 78.6235 43.7332 64.7551L62.9779 67.8768L60.5164 84.1544L49.7751 96.4183L44.4045 152.832Z" fill="#2F2E41"/>
<path d="M49.7157 161.226C49.2427 161.354 48.7477 161.382 48.2634 161.306C47.7791 161.23 47.3163 161.053 46.9055 160.787L40.3452 159.908C38.9355 158.993 37.9172 157.589 37.4879 155.968C37.0587 154.347 37.249 152.624 38.0219 151.135C40.8001 152.761 43.2372 152.535 45.3551 150.573C46.8515 153.584 49.317 153.4 51.6717 155.937C51.9835 156.392 52.1815 156.916 52.2492 157.463C52.3169 158.01 52.2524 158.566 52.061 159.083C51.8697 159.601 51.557 160.065 51.149 160.438C50.741 160.811 50.2496 161.081 49.7157 161.226V161.226Z" fill="#2F2E41"/>
<path d="M58.7262 40.0043L47.5374 37.3285C49.3956 33.5382 49.5487 29.3208 48.6562 24.8416L56.2646 24.6186C56.503 30.1887 57.2243 35.3925 58.7262 40.0043Z" fill="#FFB8B8"/>
<path d="M61.8012 74.5906C53.6562 80.1211 47.9011 74.7798 43.5094 66.5389C44.1196 61.4962 43.1315 55.4616 41.3014 48.9046C40.4875 46.0124 40.7914 42.9213 42.153 40.2415C43.5146 37.5617 45.8351 35.488 48.6562 34.4297V34.4297L58.2786 38.4434C66.4491 45.0796 68.0573 52.268 64.9919 59.8495L61.8012 74.5906Z" fill="#F39C12"/>
<path d="M38.3625 45.5788L29.4114 50.2614L45.2995 59.6265L47.5103 65.0603C47.6578 65.423 47.7297 65.8118 47.7215 66.203C47.7134 66.5943 47.6253 66.9798 47.4627 67.336C47.3001 67.6923 47.0665 68.0118 46.7759 68.2751C46.4854 68.5384 46.1441 68.74 45.7728 68.8676V68.8676C45.3507 69.0126 44.9007 69.0583 44.458 69.0011C44.0152 68.9439 43.5918 68.7853 43.2208 68.5378C42.8499 68.2903 42.5414 67.9606 42.3197 67.5745C42.0979 67.1884 41.9689 66.7564 41.9427 66.3123L41.7191 62.5253L21.5255 55.8851C20.8451 55.6614 20.2248 55.2863 19.7114 54.7883C19.198 54.2903 18.8051 53.6824 18.5624 53.0107V53.0107C18.2087 52.0316 18.1907 50.9632 18.5113 49.9728C18.8318 48.9824 19.4728 48.1259 20.334 47.5372L36.5723 36.4366L38.3625 45.5788Z" fill="#FFB8B8"/>
<path d="M47.3135 46.4707C43.5804 44.8405 40.1857 46.6114 35.9009 48.0316L35.2296 36.2136C39.4842 33.954 43.5407 33.3448 47.3135 35.0987L47.3135 46.4707Z" fill="#F39C12"/>
<path d="M51.7793 30.4725C55.7246 30.4725 58.9229 27.2855 58.9229 23.3542C58.9229 19.423 55.7246 16.236 51.7793 16.236C47.8339 16.236 44.6356 19.423 44.6356 23.3542C44.6356 27.2855 47.8339 30.4725 51.7793 30.4725Z" fill="#FFB8B8"/>
<path d="M60.3253 22.4561C53.2525 23.1464 47.8631 21.9937 44.4186 18.7119V16.0689H59.7251L60.3253 22.4561Z" fill="#2F2E41"/>
</svg>
