<svg width="211" height="139" viewBox="0 0 211 139" fill="none" xmlns="http://www.w3.org/2000/svg">
<g clip-path="url(#clip0_6_130)">
<path d="M9.03088 134.584C10.0177 135.914 11.2409 137.051 12.6395 137.938C12.937 138.126 13.2423 138.304 13.553 138.469H20.8632C20.7757 138.294 20.6907 138.116 20.6083 137.938C18.3417 133.155 17.631 127.781 18.5759 122.573C19.5209 117.365 22.0742 112.585 25.8767 108.903C21.4581 110.268 17.3741 112.928 14.7028 116.702C13.4048 118.539 12.4817 120.615 11.9863 122.809C11.5448 118.42 12.2465 113.992 14.023 109.954C10.4356 112.873 7.64196 116.869 6.57722 121.368C5.51247 125.869 6.2851 130.864 9.03088 134.584Z" fill="#F0F0F0"/>
<path d="M209.844 74.6163H160.143C159.837 74.6159 159.543 74.494 159.326 74.2774C159.11 74.0607 158.988 73.7669 158.987 73.4604V42.7143C158.988 42.4078 159.11 42.114 159.326 41.8973C159.543 41.6807 159.837 41.5588 160.143 41.5584H209.844C210.151 41.5588 210.444 41.6807 210.661 41.8973C210.878 42.114 211 42.4078 211 42.7143V73.4604C211 73.7669 210.878 74.0607 210.661 74.2774C210.444 74.494 210.151 74.6159 209.844 74.6163Z" fill="white"/>
<path d="M209.844 74.6163H160.143C159.837 74.6159 159.543 74.494 159.326 74.2774C159.11 74.0607 158.988 73.7669 158.987 73.4604V42.7143C158.988 42.4078 159.11 42.114 159.326 41.8973C159.543 41.6807 159.837 41.5588 160.143 41.5584H209.844C210.151 41.5588 210.444 41.6807 210.661 41.8973C210.878 42.114 211 42.4078 211 42.7143V73.4604C211 73.7669 210.878 74.0607 210.661 74.2774C210.444 74.494 210.151 74.6159 209.844 74.6163ZM160.143 42.0208C159.959 42.021 159.783 42.0941 159.653 42.2241C159.523 42.3541 159.45 42.5304 159.45 42.7143V73.4604C159.45 73.6443 159.523 73.8206 159.653 73.9506C159.783 74.0806 159.959 74.1537 160.143 74.1539H209.844C210.028 74.1537 210.204 74.0806 210.334 73.9506C210.464 73.8206 210.537 73.6443 210.538 73.4604V42.7143C210.537 42.5304 210.464 42.3541 210.334 42.2241C210.204 42.0941 210.028 42.021 209.844 42.0208H160.143Z" fill="#3F3D56"/>
<path d="M200.02 51.8267H169.968C169.692 51.8267 169.427 51.7171 169.232 51.522C169.037 51.327 168.928 51.0624 168.928 50.7865C168.928 50.5106 169.037 50.246 169.232 50.0509C169.427 49.8558 169.692 49.7462 169.968 49.7462H200.02C200.295 49.7462 200.56 49.8558 200.755 50.0509C200.95 50.246 201.06 50.5106 201.06 50.7865C201.06 51.0624 200.95 51.327 200.755 51.522C200.56 51.7171 200.295 51.8267 200.02 51.8267Z" fill="#CCCCCC"/>
<path d="M200.02 58.9932H169.968C169.692 58.9932 169.427 58.8835 169.232 58.6885C169.037 58.4934 168.928 58.2288 168.928 57.9529C168.928 57.677 169.037 57.4124 169.232 57.2173C169.427 57.0222 169.692 56.9126 169.968 56.9126H200.02C200.295 56.9126 200.56 57.0222 200.755 57.2173C200.95 57.4124 201.06 57.677 201.06 57.9529C201.06 58.2288 200.95 58.4934 200.755 58.6885C200.56 58.8835 200.295 58.9932 200.02 58.9932Z" fill="#CCCCCC"/>
<path d="M197.342 70.3556C199.395 70.3556 201.06 68.6911 201.06 66.6379C201.06 64.5847 199.395 62.9202 197.342 62.9202C195.289 62.9202 193.625 64.5847 193.625 66.6379C193.625 68.6911 195.289 70.3556 197.342 70.3556Z" fill="#F39C12"/>
<path d="M197.444 64.8866V64.5324H197.549V64.8866C197.698 64.893 197.843 64.9287 197.978 64.9914C198.076 65.0373 198.16 65.1076 198.223 65.1954C198.281 65.2766 198.312 65.374 198.311 65.4738C198.313 65.5467 198.289 65.618 198.242 65.6742C198.222 65.6998 198.197 65.7205 198.167 65.7346C198.138 65.7488 198.106 65.756 198.074 65.7558C198.049 65.7562 198.025 65.7517 198.003 65.7425C197.98 65.7333 197.96 65.7196 197.943 65.7022C197.926 65.6849 197.912 65.6642 197.902 65.6413C197.893 65.6185 197.889 65.594 197.889 65.5693C197.89 65.5349 197.897 65.5008 197.91 65.4691L197.952 65.3806C197.967 65.3436 197.974 65.3039 197.973 65.2641C197.975 65.2023 197.955 65.142 197.917 65.0928C197.877 65.0413 197.821 65.0028 197.759 64.9821C197.691 64.9598 197.621 64.9457 197.549 64.9402V66.2148L197.573 66.2288C197.792 66.3447 197.991 66.495 198.162 66.6739C198.238 66.7637 198.298 66.8657 198.34 66.9757C198.382 67.0822 198.404 67.1955 198.404 67.31C198.406 67.4582 198.368 67.604 198.293 67.7318C198.219 67.8565 198.112 67.9576 197.983 68.0231C197.847 68.0898 197.7 68.1324 197.549 68.1489V68.5287H197.444V68.1559C197.292 68.1547 197.142 68.1238 197.002 68.065C196.862 68.013 196.738 67.9245 196.644 67.8087C196.561 67.7049 196.516 67.5757 196.517 67.4428C196.514 67.3495 196.543 67.2579 196.599 67.183C196.621 67.1507 196.65 67.1242 196.685 67.1057C196.719 67.0872 196.758 67.0774 196.797 67.077C196.82 67.0762 196.843 67.0802 196.865 67.0888C196.887 67.0973 196.907 67.1103 196.924 67.1269C196.94 67.1435 196.953 67.1633 196.962 67.1851C196.97 67.2069 196.974 67.2303 196.974 67.2537C196.966 67.3254 196.936 67.3929 196.887 67.4467C196.862 67.4799 196.841 67.5158 196.823 67.5536C196.811 67.5832 196.806 67.6148 196.806 67.6466C196.806 67.7316 196.836 67.8139 196.889 67.8802C196.947 67.9545 197.024 68.0119 197.111 68.0464C197.211 68.0855 197.318 68.1045 197.426 68.1023H197.444V66.5807L197.312 66.5038C197.186 66.4308 197.09 66.3702 197.024 66.322C196.959 66.2752 196.9 66.2221 196.846 66.1635C196.712 66.0209 196.637 65.8325 196.638 65.6369C196.638 65.5151 196.668 65.3952 196.727 65.2886C196.784 65.1821 196.869 65.0925 196.971 65.0287C197.115 64.9424 197.277 64.8935 197.444 64.8866ZM197.444 64.9378C197.354 64.9406 197.265 64.9604 197.182 64.996C197.099 65.0371 197.031 65.1029 196.987 65.1844C196.937 65.273 196.912 65.3733 196.913 65.4751C196.912 65.5992 196.95 65.7204 197.022 65.8216C197.06 65.8767 197.106 65.926 197.158 65.9682C197.242 66.031 197.33 66.0884 197.421 66.1403L197.444 66.1542V64.9378ZM197.549 68.0976C197.609 68.0926 197.669 68.0801 197.726 68.0604C197.772 68.0425 197.815 68.0173 197.853 67.9858C197.925 67.9245 197.981 67.8465 198.016 67.7586C198.056 67.6616 198.077 67.5573 198.076 67.4522C198.067 67.2834 198.013 67.12 197.921 66.9784C197.828 66.8369 197.7 66.7222 197.549 66.6459V68.0976Z" fill="white"/>
<path d="M175.988 54.0363H126.287C125.981 54.0359 125.687 53.914 125.47 53.6973C125.253 53.4806 125.131 53.1868 125.131 52.8804V22.1342C125.131 21.8278 125.253 21.534 125.47 21.3173C125.687 21.1006 125.981 20.9787 126.287 20.9784H175.988C176.294 20.9787 176.588 21.1006 176.805 21.3173C177.021 21.534 177.143 21.8278 177.144 22.1342V52.8804C177.143 53.1868 177.021 53.4806 176.805 53.6973C176.588 53.914 176.294 54.0359 175.988 54.0363Z" fill="white"/>
<path d="M175.988 54.0363H126.287C125.981 54.0359 125.687 53.914 125.47 53.6973C125.253 53.4806 125.131 53.1868 125.131 52.8804V22.1342C125.131 21.8278 125.253 21.534 125.47 21.3173C125.687 21.1006 125.981 20.9787 126.287 20.9784H175.988C176.294 20.9787 176.588 21.1006 176.805 21.3173C177.021 21.534 177.143 21.8278 177.144 22.1342V52.8804C177.143 53.1868 177.021 53.4806 176.805 53.6973C176.588 53.914 176.294 54.0359 175.988 54.0363ZM126.287 21.4407C126.103 21.4409 125.927 21.514 125.797 21.6441C125.667 21.7741 125.594 21.9504 125.593 22.1342V52.8804C125.594 53.0643 125.667 53.2405 125.797 53.3706C125.927 53.5006 126.103 53.5737 126.287 53.5739H175.988C176.172 53.5737 176.348 53.5006 176.478 53.3706C176.608 53.2405 176.681 53.0643 176.681 52.8804V22.1342C176.681 21.9504 176.608 21.7741 176.478 21.6441C176.348 21.514 176.172 21.4409 175.988 21.4407H126.287Z" fill="#3F3D56"/>
<path d="M166.163 31.2467H136.112C135.836 31.2467 135.571 31.1371 135.376 30.942C135.181 30.7469 135.071 30.4823 135.071 30.2064C135.071 29.9305 135.181 29.6659 135.376 29.4708C135.571 29.2757 135.836 29.1661 136.112 29.1661H166.163C166.439 29.1661 166.704 29.2757 166.899 29.4708C167.094 29.6659 167.203 29.9305 167.203 30.2064C167.203 30.4823 167.094 30.7469 166.899 30.942C166.704 31.1371 166.439 31.2467 166.163 31.2467Z" fill="#CCCCCC"/>
<path d="M166.163 38.4131H136.112C135.836 38.4131 135.571 38.3035 135.376 38.1084C135.181 37.9133 135.071 37.6487 135.071 37.3728C135.071 37.0969 135.181 36.8323 135.376 36.6372C135.571 36.4421 135.836 36.3325 136.112 36.3325H166.163C166.439 36.3325 166.704 36.4421 166.899 36.6372C167.094 36.8323 167.203 37.0969 167.203 37.3728C167.203 37.6487 167.094 37.9133 166.899 38.1084C166.704 38.3035 166.439 38.4131 166.163 38.4131Z" fill="#CCCCCC"/>
<path d="M163.486 49.7756C165.539 49.7756 167.203 48.1111 167.203 46.0579C167.203 44.0047 165.539 42.3402 163.486 42.3402C161.433 42.3402 159.768 44.0047 159.768 46.0579C159.768 48.1111 161.433 49.7756 163.486 49.7756Z" fill="#F39C12"/>
<path d="M163.588 44.3065V43.9523H163.693V44.3065C163.841 44.313 163.987 44.3486 164.122 44.4114C164.219 44.4573 164.304 44.5275 164.366 44.6153C164.424 44.6966 164.455 44.794 164.455 44.8938C164.457 44.9667 164.433 45.0379 164.386 45.0942C164.366 45.1198 164.34 45.1404 164.311 45.1546C164.282 45.1687 164.25 45.1759 164.217 45.1757C164.193 45.1762 164.169 45.1717 164.146 45.1624C164.124 45.1532 164.104 45.1395 164.087 45.1221C164.069 45.1048 164.055 45.0841 164.046 45.0613C164.037 45.0384 164.032 45.0139 164.033 44.9893C164.033 44.9548 164.04 44.9207 164.054 44.8891L164.096 44.8006C164.111 44.7635 164.118 44.7239 164.117 44.684C164.118 44.6223 164.098 44.562 164.061 44.5128C164.02 44.4612 163.965 44.4228 163.903 44.4021C163.835 44.3798 163.764 44.3657 163.693 44.3601V45.6347L163.716 45.6487C163.935 45.7647 164.134 45.9149 164.306 46.0938C164.382 46.1837 164.442 46.2857 164.484 46.3956C164.526 46.5021 164.548 46.6155 164.548 46.73C164.55 46.8781 164.511 47.024 164.436 47.1517C164.363 47.2764 164.255 47.3775 164.126 47.443C163.99 47.5097 163.844 47.5523 163.693 47.5688V47.9487H163.588V47.5758C163.436 47.5746 163.286 47.5437 163.145 47.485C163.005 47.4329 162.882 47.3444 162.788 47.2286C162.705 47.1248 162.66 46.9957 162.661 46.8628C162.658 46.7694 162.686 46.6779 162.742 46.6029C162.764 46.5706 162.794 46.5441 162.828 46.5257C162.863 46.5072 162.901 46.4973 162.94 46.4969C162.964 46.4961 162.987 46.5001 163.009 46.5087C163.031 46.5173 163.051 46.5303 163.067 46.5469C163.084 46.5634 163.097 46.5832 163.105 46.605C163.114 46.6269 163.118 46.6502 163.117 46.6737C163.109 46.7454 163.079 46.8129 163.031 46.8666C163.006 46.8999 162.985 46.9358 162.967 46.9736C162.955 47.0031 162.949 47.0347 162.95 47.0666C162.95 47.1516 162.979 47.2339 163.032 47.3002C163.09 47.3745 163.167 47.4318 163.255 47.4664C163.355 47.5055 163.462 47.5244 163.569 47.5222H163.588V46.0006L163.455 45.9237C163.329 45.8507 163.233 45.7901 163.167 45.7419C163.103 45.6952 163.043 45.6421 162.989 45.5835C162.855 45.4409 162.781 45.2524 162.782 45.0569C162.781 44.9351 162.812 44.8152 162.87 44.7085C162.928 44.6021 163.012 44.5125 163.115 44.4487C163.258 44.3623 163.421 44.3134 163.588 44.3065ZM163.588 44.3578C163.498 44.3606 163.409 44.3803 163.326 44.416C163.243 44.457 163.175 44.5229 163.131 44.6043C163.081 44.693 163.055 44.7933 163.057 44.895C163.056 45.0191 163.094 45.1404 163.166 45.2416C163.204 45.2966 163.249 45.346 163.301 45.3881C163.386 45.4509 163.474 45.5084 163.565 45.5602L163.588 45.5742V44.3578ZM163.693 47.5176C163.753 47.5126 163.812 47.5 163.869 47.4803C163.915 47.4624 163.958 47.4372 163.997 47.4057C164.069 47.3445 164.124 47.2665 164.159 47.1786C164.2 47.0815 164.22 46.9773 164.219 46.8721C164.21 46.7033 164.157 46.5399 164.064 46.3984C163.972 46.2568 163.844 46.1422 163.693 46.0659V47.5176Z" fill="white"/>
<path d="M72.9585 49.4485C72.5255 49.4172 72.0909 49.4812 71.6853 49.6361C71.2797 49.7909 70.913 50.0328 70.611 50.3447C70.309 50.6566 70.0791 51.0309 69.9374 51.4412C69.7958 51.8516 69.7458 52.2881 69.791 52.7198L60.2362 57.1994L64.9129 60.063L73.2693 55.3701C73.9896 55.2461 74.6394 54.8621 75.0955 54.2909C75.5516 53.7198 75.7823 53.0012 75.744 52.2712C75.7057 51.5413 75.401 50.8508 74.8876 50.3306C74.3742 49.8103 73.6878 49.4965 72.9585 49.4485Z" fill="#FFB6B6"/>
<path d="M33.4204 135.634L36.7203 135.634L38.2902 122.906L33.4199 122.906L33.4204 135.634Z" fill="#FFB6B6"/>
<path d="M32.5788 134.557L39.0773 134.557H39.0776C40.1759 134.557 41.2292 134.993 42.0059 135.77C42.7825 136.546 43.2189 137.6 43.2189 138.698V138.833L32.579 138.833L32.5788 134.557Z" fill="#2F2E41"/>
<path d="M50.2583 135.634L53.5582 135.634L55.1281 122.906L50.2578 122.906L50.2583 135.634Z" fill="#FFB6B6"/>
<path d="M49.4167 134.557L55.9152 134.557H55.9155C57.0138 134.557 58.0671 134.993 58.8438 135.77C59.6204 136.546 60.0568 137.6 60.0568 138.698V138.833L49.4169 138.833L49.4167 134.557Z" fill="#2F2E41"/>
<path d="M52.4626 69.616L54.1373 73.2219L57.1568 105.47L54.8097 133.187H49.3202L42.8426 89.4979L39.8 132.181L32.393 131.882L30.9711 74.0132L52.4626 69.616Z" fill="#2F2E41"/>
<path d="M25.7727 39.8574L32.7165 37.0323L42.5173 37.5819L51.2304 40.7573L54.1374 73.2219C46.5572 77.3614 38.8788 78.4912 31.0667 75.5313L23.8164 54.3862L25.7727 39.8574Z" fill="#E4E4E4"/>
<path d="M48.5196 41.6156L51.601 40.7573C51.601 40.7573 53.9316 39.2419 54.6984 43.7467C55.4652 48.2516 59.4109 55.2588 59.4109 55.2588L66.1654 51.6589L69.2926 58.4885L58.6257 64.9503L47.3925 53.6314L48.5196 41.6156Z" fill="#E4E4E4"/>
<path d="M31.6176 31.0175C31.2434 30.1684 31.0401 29.2538 31.0193 28.3261C30.9986 27.3985 31.1607 26.4758 31.4965 25.6107C31.8323 24.7457 32.3352 23.9553 32.9765 23.2846C33.6177 22.614 34.3848 22.0762 35.2339 21.702C36.083 21.3277 36.9975 21.1244 37.9251 21.1037C38.8528 21.0829 39.7755 21.245 40.6405 21.5809C41.5055 21.9167 42.2959 22.4196 42.9665 23.0609C43.6372 23.7021 44.1749 24.4692 44.5491 25.3184L44.5895 25.4118C45.333 27.1324 45.3626 29.0779 44.6717 30.8203C44.3296 31.683 43.8209 32.4699 43.1747 33.1361C42.5285 33.8022 41.7574 34.3346 40.9055 34.7027C39.185 35.4462 37.2396 35.4758 35.4973 34.7849C33.7549 34.094 32.3584 32.7392 31.6149 31.0186L31.6176 31.0175Z" fill="#FFB6B6"/>
<path d="M41.2104 24.5505C42.6796 24.817 44.9532 25.742 46.215 24.6569C45.5919 23.9287 44.808 23.3553 43.9253 22.982C43.7514 22.9243 43.5904 22.8333 43.4513 22.7141C43.0211 22.2793 43.3535 21.5302 43.1567 20.9423C43.0611 20.7275 42.9169 20.5379 42.7355 20.3883C42.5541 20.2387 42.3404 20.1333 42.1113 20.0804C41.6734 19.9494 41.2144 19.9281 40.7842 19.7692C39.7661 19.3865 39.0423 18.2914 37.9987 17.9939C37.0894 17.7309 36.1745 18.1396 35.3898 18.6167C34.605 19.0937 33.8288 19.6597 32.9107 19.7502C32.2247 19.8128 31.7904 20.9413 31.1017 20.9743C29.6584 21.0445 29.7386 20.0933 29.6318 21.6095C29.5702 22.5143 28.2774 24.3143 28.2984 25.227C28.3198 25.8251 28.214 26.4174 28.231 27.0173C28.2698 28.1598 28.7281 29.248 29.5182 30.0741C30.1753 30.7499 31.0299 31.2056 31.5831 31.9759C31.8707 32.3847 32.0702 32.8621 32.4051 33.232C32.7399 33.602 33.307 33.8247 33.6807 33.5605C34.0544 33.2964 34.0614 32.7247 34.2468 32.2897C34.3605 32.0231 34.5548 31.7986 34.8025 31.6479C35.0501 31.4971 35.3387 31.4276 35.6279 31.449C35.9281 31.4883 36.2115 31.6105 36.4461 31.8021C36.6807 31.9936 36.8572 32.2468 36.9558 32.5331C36.7808 31.5718 36.3194 30.6711 36.1441 29.7091C35.9688 28.747 36.1973 27.5978 37.0257 27.2222C37.3813 27.0567 37.8618 27.0122 38.0047 26.6308C38.0923 26.4011 38.0122 26.1297 38.0459 25.8812C38.228 24.6637 40.2524 24.3625 41.2104 24.5505Z" fill="#2F2E41"/>
<path d="M31.8992 75.156C31.8359 74.7265 31.6792 74.3161 31.4401 73.9537C31.201 73.5913 30.8854 73.2858 30.5155 73.0586C30.1455 72.8314 29.7303 72.6881 29.299 72.6387C28.8677 72.5894 28.4308 72.6352 28.0191 72.773L21.5748 64.4163L19.7932 69.6027L26.186 76.7432C26.4633 77.4195 26.979 77.9706 27.6354 78.292C28.2918 78.6135 29.0434 78.683 29.7476 78.4873C30.4518 78.2917 31.0598 77.8445 31.4564 77.2305C31.8529 76.6165 32.0105 75.8784 31.8992 75.156V75.156Z" fill="#FFB6B6"/>
<path d="M27.9986 41.4336L25.7727 39.8574C25.7727 39.8574 20.6805 39.5657 19.9397 43.7467L10.6024 59.1075L22.1795 75.0796L27.7923 69.1709L20.7101 60.8943L26.6564 49.9761L27.9986 41.4336Z" fill="#E4E4E4"/>
<path d="M82.2281 43.8675H82.1114V40.6685C82.1114 40.4253 82.0635 40.1845 81.9704 39.9599C81.8774 39.7353 81.741 39.5312 81.5691 39.3592C81.3971 39.1873 81.193 39.0509 80.9684 38.9579C80.7438 38.8648 80.503 38.8169 80.2599 38.8169H73.4824C73.2393 38.8169 72.9985 38.8648 72.7739 38.9579C72.5492 39.0509 72.3451 39.1873 72.1732 39.3592C72.0013 39.5312 71.8649 39.7353 71.7719 39.9599C71.6788 40.1845 71.6309 40.4253 71.6309 40.6685V58.2189C71.6309 58.462 71.6788 58.7028 71.7719 58.9274C71.8649 59.1521 72.0013 59.3562 72.1732 59.5281C72.3451 59.7001 72.5492 59.8364 72.7739 59.9295C72.9985 60.0225 73.2393 60.0704 73.4824 60.0704H80.2599C80.503 60.0704 80.7438 60.0225 80.9684 59.9295C81.193 59.8364 81.3971 59.7001 81.5691 59.5281C81.741 59.3562 81.8774 59.1521 81.9704 58.9274C82.0635 58.7028 82.1114 58.462 82.1114 58.2189V46.1447H82.2281V43.8675Z" fill="#3F3D56"/>
<path d="M80.3346 39.2986H79.4499C79.4906 39.3984 79.5061 39.5066 79.4951 39.6138C79.4841 39.7209 79.447 39.8237 79.3869 39.9132C79.3268 40.0026 79.2456 40.0758 79.1506 40.1265C79.0555 40.1771 78.9494 40.2036 78.8417 40.2037H74.959C74.8513 40.2036 74.7452 40.1771 74.6501 40.1265C74.5551 40.0758 74.4739 40.0026 74.4138 39.9131C74.3537 39.8237 74.3166 39.7209 74.3056 39.6138C74.2946 39.5066 74.3101 39.3984 74.3508 39.2986H73.5245C73.1578 39.2986 72.8061 39.4443 72.5468 39.7036C72.2875 39.9629 72.1418 40.3146 72.1418 40.6813V58.206C72.1418 58.5727 72.2875 58.9244 72.5468 59.1837C72.8061 59.443 73.1578 59.5887 73.5245 59.5887H80.3346C80.7013 59.5887 81.053 59.443 81.3123 59.1837C81.5716 58.9244 81.7173 58.5727 81.7173 58.206V40.6813C81.7173 40.3146 81.5716 39.9629 81.3123 39.7036C81.053 39.4443 80.7013 39.2986 80.3346 39.2986Z" fill="#F39C12"/>
<path d="M141.467 33.0579H91.7667C91.4603 33.0575 91.1665 32.9356 90.9498 32.7189C90.7331 32.5023 90.6112 32.2085 90.6109 31.902V1.15587C90.6112 0.849424 90.7331 0.555626 90.9498 0.338934C91.1665 0.122242 91.4603 0.000350709 91.7667 0H141.467C141.774 0.000350711 142.068 0.122242 142.284 0.338934C142.501 0.555626 142.623 0.849425 142.623 1.15587V31.902C142.623 32.2085 142.501 32.5023 142.284 32.7189C142.068 32.9356 141.774 33.0575 141.467 33.0579Z" fill="white"/>
<path d="M141.467 33.0579H91.7667C91.4603 33.0575 91.1665 32.9356 90.9498 32.7189C90.7331 32.5023 90.6112 32.2085 90.6109 31.902V1.15587C90.6112 0.849424 90.7331 0.555626 90.9498 0.338934C91.1665 0.122242 91.4603 0.000350709 91.7667 0H141.467C141.774 0.000350711 142.068 0.122242 142.284 0.338934C142.501 0.555626 142.623 0.849425 142.623 1.15587V31.902C142.623 32.2085 142.501 32.5023 142.284 32.7189C142.068 32.9356 141.774 33.0575 141.467 33.0579ZM91.7667 0.462348C91.5828 0.462549 91.4066 0.535682 91.2766 0.6657C91.1465 0.795717 91.0734 0.972001 91.0732 1.15587V31.902C91.0734 32.0859 91.1465 32.2622 91.2766 32.3922C91.4066 32.5222 91.5828 32.5953 91.7667 32.5955H141.467C141.651 32.5953 141.828 32.5222 141.958 32.3922C142.088 32.2622 142.161 32.0859 142.161 31.902V1.15587C142.161 0.972001 142.088 0.795717 141.958 0.6657C141.828 0.535682 141.651 0.462549 141.467 0.462348H91.7667Z" fill="#3F3D56"/>
<path d="M131.643 10.2683H101.591C101.315 10.2683 101.051 10.1587 100.856 9.96365C100.661 9.76856 100.551 9.50395 100.551 9.22805C100.551 8.95215 100.661 8.68755 100.856 8.49246C101.051 8.29737 101.315 8.18777 101.591 8.18777H131.643C131.919 8.18777 132.183 8.29737 132.378 8.49246C132.574 8.68755 132.683 8.95215 132.683 9.22805C132.683 9.50395 132.574 9.76856 132.378 9.96365C132.183 10.1587 131.919 10.2683 131.643 10.2683Z" fill="#CCCCCC"/>
<path d="M131.643 17.4347H101.591C101.315 17.4347 101.051 17.3251 100.856 17.13C100.661 16.935 100.551 16.6704 100.551 16.3945C100.551 16.1185 100.661 15.8539 100.856 15.6589C101.051 15.4638 101.315 15.3542 101.591 15.3542H131.643C131.919 15.3542 132.183 15.4638 132.378 15.6589C132.574 15.8539 132.683 16.1185 132.683 16.3945C132.683 16.6704 132.574 16.935 132.378 17.13C132.183 17.3251 131.919 17.4347 131.643 17.4347Z" fill="#CCCCCC"/>
<path d="M128.966 28.7972C131.019 28.7972 132.683 27.1327 132.683 25.0795C132.683 23.0263 131.019 21.3618 128.966 21.3618C126.912 21.3618 125.248 23.0263 125.248 25.0795C125.248 27.1327 126.912 28.7972 128.966 28.7972Z" fill="#F39C12"/>
<path d="M129.068 23.3282V22.974H129.173V23.3282C129.321 23.3346 129.467 23.3702 129.601 23.433C129.699 23.4789 129.783 23.5491 129.846 23.637C129.904 23.7182 129.935 23.8156 129.935 23.9154C129.937 23.9883 129.912 24.0596 129.866 24.1158C129.846 24.1414 129.82 24.1621 129.791 24.1762C129.762 24.1903 129.729 24.1976 129.697 24.1974C129.673 24.1978 129.649 24.1933 129.626 24.1841C129.604 24.1749 129.583 24.1611 129.566 24.1438C129.549 24.1265 129.535 24.1057 129.526 24.0829C129.517 24.0601 129.512 24.0356 129.513 24.0109C129.513 23.9765 129.52 23.9423 129.534 23.9107L129.576 23.8222C129.591 23.7852 129.598 23.7455 129.597 23.7057C129.598 23.6439 129.578 23.5836 129.541 23.5344C129.5 23.4829 129.445 23.4444 129.382 23.4237C129.314 23.4014 129.244 23.3873 129.173 23.3817V24.6564L129.196 24.6704C129.415 24.7863 129.614 24.9366 129.785 25.1154C129.861 25.2053 129.922 25.3073 129.964 25.4172C130.006 25.5238 130.027 25.6371 130.028 25.7516C130.03 25.8998 129.991 26.0456 129.916 26.1734C129.843 26.2981 129.735 26.3992 129.606 26.4646C129.47 26.5314 129.323 26.574 129.173 26.5905V26.9703H129.068V26.5975C128.916 26.5963 128.765 26.5654 128.625 26.5066C128.485 26.4546 128.362 26.3661 128.267 26.2503C128.184 26.1465 128.14 26.0173 128.14 25.8844C128.137 25.7911 128.166 25.6995 128.222 25.6246C128.244 25.5923 128.273 25.5657 128.308 25.5473C128.342 25.5288 128.381 25.519 128.42 25.5186C128.443 25.5178 128.467 25.5218 128.489 25.5303C128.51 25.5389 128.53 25.5519 128.547 25.5685C128.564 25.5851 128.577 25.6049 128.585 25.6267C128.594 25.6485 128.598 25.6719 128.597 25.6953C128.589 25.767 128.559 25.8345 128.511 25.8883C128.486 25.9215 128.464 25.9574 128.447 25.9952C128.435 26.0247 128.429 26.0564 128.429 26.0882C128.43 26.1732 128.459 26.2555 128.512 26.3218C128.57 26.3961 128.647 26.4535 128.735 26.488C128.835 26.5271 128.942 26.5461 129.049 26.5439H129.068V25.0222L128.935 24.9453C128.809 24.8724 128.713 24.8118 128.647 24.7636C128.583 24.7168 128.523 24.6637 128.469 24.6051C128.335 24.4625 128.261 24.2741 128.262 24.0785C128.261 23.9567 128.291 23.8368 128.35 23.7302C128.408 23.6237 128.492 23.5341 128.595 23.4703C128.738 23.3839 128.901 23.3351 129.068 23.3282ZM129.068 23.3794C128.977 23.3822 128.889 23.402 128.806 23.4376C128.723 23.4787 128.655 23.5445 128.611 23.626C128.561 23.7146 128.535 23.8149 128.536 23.9167C128.535 24.0408 128.574 24.162 128.645 24.2632C128.684 24.3183 128.729 24.3676 128.781 24.4098C128.865 24.4725 128.953 24.53 129.045 24.5818L129.068 24.5958V23.3794ZM129.173 26.5392C129.233 26.5342 129.292 26.5217 129.349 26.5019C129.395 26.4841 129.438 26.4589 129.477 26.4274C129.548 26.3661 129.604 26.2881 129.639 26.2002C129.679 26.1032 129.7 25.9989 129.699 25.8938C129.69 25.7249 129.636 25.5616 129.544 25.42C129.452 25.2785 129.323 25.1638 129.173 25.0875V26.5392Z" fill="white"/>
<path d="M89.4364 139H-11.7345C-11.8049 139 -11.8724 138.972 -11.9222 138.922C-11.972 138.872 -12 138.805 -12 138.734C-12 138.664 -11.972 138.596 -11.9222 138.547C-11.8724 138.497 -11.8049 138.469 -11.7345 138.469H89.4364C89.5068 138.469 89.5744 138.497 89.6242 138.547C89.674 138.596 89.702 138.664 89.702 138.734C89.702 138.805 89.674 138.872 89.6242 138.922C89.5744 138.972 89.5068 139 89.4364 139Z" fill="#CACACA"/>
</g>
<defs>
<clipPath id="clip0_6_130">
<rect width="223" height="139" fill="white" transform="translate(-12)"/>
</clipPath>
</defs>
</svg>
